<svg width="64" height="64" preserveAspectRatio="xMidYMid" version="1.0" viewBox="0 0 48 48" xml:space="preserve" xmlns="http://www.w3.org/2000/svg">
  <path transform="matrix(.1 0 0 .1 0 230)" fill="#c9fdc1" style="paint-order:fill markers stroke" d="M240.41-2300h240.11v480.43H240.41z"/>
  <path transform="matrix(.1 0 0 .1 0 230)" fill="#f5bebc" style="paint-order:fill markers stroke" d="M-.01-2300.1h240.4v480.08H-.01z"/>
  <path d="M12.76 4.93c-1.9.52-2.7 1.1-3.38 2.43-.52.98-.63 1.77-.8 6.3-.24 7.27-.65 8.03-4.44 8.3l-1.94.17-.08 2.1-.09 2.13h1.59c2.15.03 3.66.74 4.28 2.05.41.81.52 1.96.63 5.7.08 2.79.27 5.24.52 6.09.74 2.65 2.73 3.55 8.16 3.68l3.28.09v-4.1l-2.35-.14c-1.37-.08-2.54-.3-2.81-.51-.74-.6-.98-2.19-.98-6.1 0-5.75-.55-7.39-2.82-8.4l-1.09-.5 1.26-.54a3.2 3.2 0 0 0 1.85-1.74c.58-1.07.63-1.7.8-6.36.08-3.23.27-5.4.49-5.76.43-.82 1.69-1.2 3.9-1.2h1.88v-4.1l-3.19.03c-1.86 0-3.82.16-4.67.38zm14.96 1.63v2.05h1.88c3.99 0 4.2.38 4.4 7.1.19 6.03.44 6.82 2.57 7.88l1.28.66-1.04.46c-2.26 1.04-2.6 1.94-2.81 8.2-.08 3-.3 5.29-.5 5.62-.43.81-.97 1-3.46 1.17l-2.18.16-.08 2.02-.09 2 3.9-.11c3.5-.09 4.05-.17 5.28-.77a3.7 3.7 0 0 0 2.04-2.05c.6-1.25.69-1.74.82-6.55.22-7.04.63-7.75 4.53-8l2.05-.13-.08-2.08-.08-2.07-1.97-.14c-1.4-.1-2.18-.3-2.73-.7-1.36-1.02-1.53-1.73-1.72-7.38-.13-4.83-.22-5.32-.84-6.52-1.1-2.16-3.17-2.87-8.33-2.87h-2.84z"/>
</svg>
